<svg xmlns="http://www.w3.org/2000/svg" viewBox="0 0 200 200" width="200" height="200">
  <defs>
    <radialGradient id="aiBg" cx="50%" cy="50%" r="50%">
      <stop offset="0%" style="stop-color:#1a1a3e"/>
      <stop offset="100%" style="stop-color:#030303"/>
    </radialGradient>
    <linearGradient id="neuralBlue" x1="0%" y1="0%" x2="100%" y2="100%">
      <stop offset="0%" style="stop-color:#00f5ff"/>
      <stop offset="50%" style="stop-color:#6a4bff"/>
      <stop offset="100%" style="stop-color:#00f5ff"/>
    </linearGradient>
    <filter id="neuralGlow">
      <feGaussianBlur stdDeviation="4" result="blur"/>
      <feMerge><feMergeNode in="blur"/><feMergeNode in="SourceGraphic"/></feMerge>
    </filter>
  </defs>
  <circle cx="100" cy="100" r="95" fill="url(#aiBg)"/>
  <circle cx="100" cy="100" r="90" fill="none" stroke="#1a1a3e" stroke-width="6"/>
  <circle cx="100" cy="100" r="88" fill="none" stroke="#00f5ff" stroke-width="1" opacity="0.5"/>
  <g filter="url(#neuralGlow)">
    <path d="M100,100 C75,100 55,75 55,75 C40,55 25,65 25,80 C25,95 40,110 55,110 C70,110 85,100 100,100 C115,100 130,110 145,110 C160,110 175,95 175,80 C175,65 160,55 145,75 C145,75 125,100 100,100"
      fill="none" stroke="url(#neuralBlue)" stroke-width="8" stroke-linecap="round"/>
  </g>
  <!-- Circuit-like decorations -->
  <circle cx="30" cy="100" r="2" fill="#00f5ff" opacity="0.8"/>
  <circle cx="170" cy="100" r="2" fill="#00f5ff" opacity="0.8"/>
  <circle cx="100" cy="30" r="2" fill="#6a4bff" opacity="0.8"/>
  <circle cx="100" cy="170" r="2" fill="#6a4bff" opacity="0.8"/>
</svg>
