<svg xmlns="http://www.w3.org/2000/svg" viewBox="0 0 200 200" width="200" height="200">
  <defs>
    <radialGradient id="forgeBg" cx="50%" cy="50%" r="50%">
      <stop offset="0%" style="stop-color:#2a1a0a"/>
      <stop offset="100%" style="stop-color:#0a0503"/>
    </radialGradient>
    <linearGradient id="moltenGold" x1="0%" y1="0%" x2="100%" y2="100%">
      <stop offset="0%" style="stop-color:#ff6b35"/>
      <stop offset="25%" style="stop-color:#ff8c00"/>
      <stop offset="50%" style="stop-color:#d4af37"/>
      <stop offset="75%" style="stop-color:#ff8c00"/>
      <stop offset="100%" style="stop-color:#ff6b35"/>
    </linearGradient>
    <filter id="forgeGlow">
      <feGaussianBlur stdDeviation="4" result="blur"/>
      <feMerge><feMergeNode in="blur"/><feMergeNode in="SourceGraphic"/></feMerge>
    </filter>
  </defs>
  <circle cx="100" cy="100" r="95" fill="url(#forgeBg)"/>
  <circle cx="100" cy="100" r="90" fill="none" stroke="#8b4513" stroke-width="6"/>
  <circle cx="100" cy="100" r="87" fill="none" stroke="#d4af37" stroke-width="1" opacity="0.5"/>
  <g filter="url(#forgeGlow)">
    <path d="M100,100 C75,100 55,75 55,75 C40,55 25,65 25,80 C25,95 40,110 55,110 C70,110 85,100 100,100 C115,100 130,110 145,110 C160,110 175,95 175,80 C175,65 160,55 145,75 C145,75 125,100 100,100"
      fill="none" stroke="url(#moltenGold)" stroke-width="8" stroke-linecap="round"/>
  </g>
  <!-- Ember particles -->
  <circle cx="45" cy="65" r="2" fill="#ff6b35" opacity="0.8"/>
  <circle cx="155" cy="70" r="1.5" fill="#ff8c00" opacity="0.7"/>
  <circle cx="100" cy="150" r="2" fill="#d4af37" opacity="0.6"/>
  <circle cx="60" cy="140" r="1" fill="#ff6b35" opacity="0.5"/>
</svg>
