<svg xmlns="http://www.w3.org/2000/svg" viewBox="0 0 32 32" width="32" height="32">
  <defs>
    <radialGradient id="bg" cx="50%" cy="50%" r="50%">
      <stop offset="0%" stop-color="#1a0a2e"/>
      <stop offset="100%" stop-color="#030303"/>
    </radialGradient>
    <linearGradient id="gold" x1="0%" y1="0%" x2="100%" y2="100%">
      <stop offset="0%" stop-color="#ffd700"/>
      <stop offset="50%" stop-color="#d4af37"/>
      <stop offset="100%" stop-color="#ffd700"/>
    </linearGradient>
  </defs>
  <circle cx="16" cy="16" r="15" fill="url(#bg)"/>
  <circle cx="16" cy="16" r="14" fill="none" stroke="url(#gold)" stroke-width="1.5"/>
  <path
    d="M16 16
       C16 13.5, 18 11, 21 11
       C24.5 11, 26 13, 26 16
       C26 19, 24.5 21, 21 21
       C18 21, 16 18.5, 16 16
       C16 18.5, 14 21, 11 21
       C7.5 21, 6 19, 6 16
       C6 13, 7.5 11, 11 11
       C14 11, 16 13.5, 16 16"
    fill="none"
    stroke="url(#gold)"
    stroke-width="2"
    stroke-linecap="round"
  />
</svg>